<?xml version="1.0" encoding="UTF-8"?>
<svg width="304px" height="55px" viewBox="0 0 304 55" version="1.1" xmlns="http://www.w3.org/2000/svg" xmlns:xlink="http://www.w3.org/1999/xlink">
    <!-- Generator: Sketch 46.2 (44496) - http://www.bohemiancoding.com/sketch -->
    <title>megafon-logo-green</title>
    <desc>Created with Sketch.</desc>
    <defs></defs>
    <g id="Page-1" stroke="none" stroke-width="1" fill="none" fill-rule="evenodd">
        <g id="megafon-logo-green" fill-rule="nonzero" fill="#FFFFFF">
            <g id="Group">
                <path d="M30.3,0.7 L30.3,28.5 L30.3,28.5 L30.3,28.5 C30.3,29.8 29.3,30.7 28.1,30.7 L24.8,30.7 L24.8,30.7 C24.6,30.7 24.5,30.9 24.5,31 L24.5,54.3 C25.3,54.3 26.1,54.5 27,54.5 C41.9,54.5 54,42.4 54,27.5 C54,13.8 43.7,2.3 30.3,0.7 Z M29.7,42.3 C27.8,42.3 26.4,40.7 26.4,39 C26.4,37.1 28,35.7 29.7,35.7 C31.6,35.7 33,37.3 33,39 C33.2,40.8 31.6,42.3 29.7,42.3 Z M37.6,42.3 C35.7,42.3 34.3,40.7 34.3,39 C34.3,37.1 35.9,35.7 37.6,35.7 C39.5,35.7 40.9,37.3 40.9,39 C40.9,40.7 39.6,42.3 37.6,42.3 Z M45.6,42.3 C43.7,42.3 42.3,40.7 42.3,39 C42.3,37.1 43.9,35.7 45.6,35.7 C47.5,35.7 48.9,37.3 48.9,39 C48.9,40.7 47.5,42.3 45.6,42.3 Z" id="Shape"></path>
                <path d="M27,0.6 C12.1,0.6 0,12.7 0,27.6 C0,40.7 9.1,51.4 21.3,53.9 L21.3,29.6 L21.3,29.6 C21.3,28.5 22.3,27.6 23.3,27.4 L23.3,27.4 L24.4,27.4 L26.6,27.4 C26.8,27.4 26.9,27.2 26.9,27.1 L27,0.6 L27,0.6 Z M21.8,22.8 C19.9,22.8 18.5,21.2 18.5,19.5 C18.5,17.6 20.1,16.2 21.8,16.2 C23.7,16.2 25.1,17.8 25.1,19.5 C25.1,21.2 23.6,22.8 21.8,22.8 Z" id="Shape_1_"></path>
            </g>
            <g id="Group_1_" transform="translate(67.000000, 10.000000)">
                <polygon id="Shape_2_" points="230.3 5.3 230.3 15.5 216.7 15.5 216.7 5.3 209.8 5.3 209.8 32.3 216.7 32.3 216.7 21.4 230.3 21.4 230.3 32.3 237 32.3 237 5.3"></polygon>
                <path d="M117.9,8.4 C116.8,6 114.6,4.7 112.4,4.7 L112.4,4.7 L112.4,4.7 L112.4,4.7 C110.2,4.7 107.9,6 106.9,8.4 L96,32.4 L103.2,32.4 L105.6,26.7 L119.6,26.7 L122,32.4 L129.2,32.4 L117.9,8.4 Z M107.5,21.3 L111.6,11.4 C111.8,11.1 111.9,11.1 112.1,11.1 L112.1,11.1 L112.1,11.1 C112.3,11.1 112.6,11.1 112.6,11.4 L116.7,21.3 L107.5,21.3 Z" id="Shape_3_"></path>
                <path d="M37.5,0.5 C34.3,0.5 32.3,2.2 30.8,5.6 L22.1,25.9 L13.3,5.5 C11.9,2.2 9.8,0.4 6.6,0.4 C3.6,0.4 0.6,2.4 0.6,7.1 L0.6,32.2 L7.3,32.2 L7.3,8 L16.2,28.1 C17.3,31 19.4,32.7 22.1,32.7 L22.1,32.7 L22.1,32.7 L22.1,32.7 L22.1,32.7 C25,32.7 26.9,31 28,28.1 L36.9,8 L36.9,32.5 L43.6,32.5 L43.6,7.4 C43.5,2.7 40.5,0.5 37.5,0.5 Z" id="Shape_4_"></path>
                <path d="M55.4,26.6 C55.1,26.6 54.7,26.3 54.7,25.9 L54.7,21.1 L71.5,21.1 L71.5,15.6 L54.7,15.6 L54.7,11.5 C54.7,11.2 55,10.8 55.4,10.8 L72.1,10.8 L72.1,5.1 L52.1,5.1 C49.7,5.1 48.1,7 48.1,9.1 L48.1,28 C48.1,30 49.8,32 52.1,32 L72.1,32 L72.1,26.3 L55.4,26.3 L55.4,26.6 L55.4,26.6 Z" id="Shape_5_"></path>
                <path d="M83.4,32.3 L83.4,11.7 C83.4,11.4 83.7,11 84.1,11 L100.8,11 L100.8,5.3 L80.8,5.3 C78.4,5.3 76.8,7.2 76.8,9.3 L76.8,32.2 L83.4,32.3 L83.4,32.3 L83.4,32.3 Z" id="Shape_6_"></path>
                <path d="M205.4,18.9 C205.4,9.5 201.3,5.1 191.1,5.1 L188.7,5.1 C178.5,5.1 174.4,9.6 174.4,18.9 L174.4,18.9 C174.4,28.1 178.5,32.7 188.7,32.7 L190.9,32.7 C201.3,32.5 205.4,28.1 205.4,18.9 L205.4,18.9 Z M190.9,27 L188.7,27 C183.2,27 180.9,24.5 180.9,18.9 L180.9,18.9 C180.9,13.5 182.8,10.8 188.7,10.8 L190.9,10.8 C196.6,10.8 198.7,13.5 198.7,18.9 L198.7,18.9 C198.7,24.4 196.6,27 190.9,27 Z" id="Shape_7_"></path>
                <path d="M155.7,1.1 L142.3,1.1 C132.3,1.1 128.3,6.2 128.3,14.9 C128.3,16.3 128.5,17.6 128.6,18.7 C129.7,24.9 133.4,28.7 142.7,28.7 L145.7,28.7 L145.7,32.2 L152.4,32.2 L152.4,28.7 L155.3,28.7 C164.7,28.7 168.4,24.9 169.4,18.7 C169.6,17.6 169.7,16.3 169.7,14.9 C169.6,6.2 165.5,1.1 155.7,1.1 Z M145.5,23.1 L142.5,23.1 C137.9,23.1 136.3,21.4 135.3,18.6 C135,17.6 135,16.2 135,14.8 C135,9.1 137.7,6.7 141.5,6.7 L145.6,6.7 L145.6,23.1 L145.5,23.1 L145.5,23.1 Z M162.7,18.9 C161.7,21.6 160,23.4 155.5,23.4 L152.5,23.4 L152.5,6.9 L156.6,6.9 C160.4,6.9 163.1,9.3 163.1,15 C163,16.5 163,17.7 162.7,18.9 Z" id="Shape_8_"></path>
            </g>
        </g>
    </g>
</svg>